<svg width="245" height="63" viewBox="0 0 245 63" fill="none" xmlns="http://www.w3.org/2000/svg">
<mask id="mask0_83_1476" style="mask-type:luminance" maskUnits="userSpaceOnUse" x="60" y="34" width="186" height="25">
<path d="M245 34.8652H60.3214V58.3698H245V34.8652Z" fill="white"/>
</mask>
<g mask="url(#mask0_83_1476)">
<path d="M60.6123 39.1426H61.4991V43.5317H63.9087V39.1426H64.7995V43.5317H65.4354V45.5653H64.6065V44.3025H60.6123V39.1426Z" fill="white"/>
<path d="M69.8062 41.3251C69.8032 41.0973 69.7647 40.8713 69.6923 40.6553C69.6313 40.4724 69.5329 40.3042 69.4033 40.1614C69.279 40.0293 69.1266 39.9268 68.9574 39.8614C68.7729 39.7916 68.5768 39.7577 68.3795 39.7615C68.1868 39.7591 67.996 39.7994 67.8206 39.8794C67.651 39.9574 67.4987 40.0686 67.3727 40.2064C67.2401 40.3527 67.1354 40.5222 67.0638 40.7063C66.9849 40.9074 66.9377 41.1195 66.9238 41.3351L69.8062 41.3251ZM70.6391 42.6549C70.6017 42.8868 70.5235 43.1102 70.4081 43.3147C70.2867 43.5329 70.1284 43.7285 69.9402 43.8926C69.7389 44.0687 69.5085 44.2084 69.2594 44.3055C68.982 44.4123 68.6867 44.4653 68.3895 44.4615C68.0611 44.4649 67.7349 44.4069 67.4277 44.2906C67.1378 44.1794 66.8774 44.0029 66.6669 43.7747C66.4421 43.5242 66.2718 43.2296 66.167 42.9098C66.0376 42.5151 65.9757 42.1014 65.984 41.6861C65.9791 41.3979 66.0127 41.1104 66.084 40.8312C66.1463 40.5916 66.2401 40.3614 66.3629 40.1464C66.5768 39.7761 66.888 39.4715 67.2627 39.2656C67.4287 39.1727 67.6057 39.1011 67.7896 39.0526C67.9597 39.0079 68.1347 38.9847 68.3105 38.9836C68.6399 38.9796 68.9675 39.0335 69.2783 39.1426C69.5638 39.2438 69.8221 39.4094 70.0332 39.6265C70.2532 39.8595 70.4206 40.137 70.5241 40.4403C70.6482 40.8107 70.7077 41.1996 70.7001 41.5901V42.037H66.9268C66.9274 42.2684 66.9635 42.4984 67.0338 42.7189C67.0941 42.9108 67.1923 43.0886 67.3227 43.2418C67.4474 43.386 67.6029 43.5005 67.7776 43.5767C67.9687 43.6581 68.1749 43.6983 68.3825 43.6947C68.5798 43.6988 68.776 43.6648 68.9604 43.5947C69.2402 43.4859 69.4718 43.2805 69.6133 43.0158C69.677 42.8996 69.7325 42.779 69.7793 42.6549H70.6391Z" fill="white"/>
<path d="M71.7327 39.1426H72.6195V41.2242H75.029V39.1426H75.9198V44.3025H75.029V41.995H72.6195V44.3025H71.7327V39.1426Z" fill="white"/>
<path d="M78.5945 39.9134H76.8168V39.1426H81.2589V39.9134H79.4813V44.3025H78.5945V39.9134Z" fill="white"/>
<path d="M82.9747 41.7491C82.9724 42.009 83 42.2683 83.0567 42.5219C83.1034 42.7402 83.1887 42.9485 83.3086 43.1368C83.4176 43.3043 83.5646 43.4437 83.7375 43.5437C83.9244 43.6454 84.1347 43.6961 84.3474 43.6907C84.5678 43.6962 84.7859 43.6457 84.9813 43.5437C85.159 43.4458 85.3103 43.3061 85.4222 43.1368C85.5435 42.9489 85.6299 42.7406 85.6772 42.5219C85.7339 42.2683 85.7614 42.009 85.7591 41.7491C85.7613 41.4803 85.7338 41.212 85.6772 40.9492C85.631 40.7253 85.5446 40.5115 85.4222 40.3184C85.3117 40.1466 85.1601 40.0051 84.9813 39.9064C84.7859 39.8045 84.5678 39.7539 84.3474 39.7595C84.1347 39.754 83.9244 39.8047 83.7375 39.9064C83.5635 40.0072 83.4163 40.1485 83.3086 40.3184C83.1877 40.5119 83.1023 40.7256 83.0567 40.9492C83.0001 41.212 82.9726 41.4803 82.9747 41.7491ZM82.1069 39.1426H82.9937V39.8505H83.0127C83.0719 39.7298 83.1454 39.6166 83.2316 39.5135C83.3227 39.4054 83.43 39.312 83.5496 39.2366C83.6825 39.1537 83.8271 39.091 83.9785 39.0506C84.1603 39.0034 84.3476 38.9809 84.5354 38.9836C84.81 38.9823 85.082 39.0364 85.3352 39.1426C85.5921 39.2507 85.8224 39.4134 86.0101 39.6195C86.218 39.8519 86.3769 40.124 86.477 40.4193C86.5993 40.7784 86.6582 41.1559 86.651 41.5351C86.6603 41.991 86.6057 42.446 86.489 42.8869C86.402 43.2181 86.2463 43.5274 86.0321 43.7947C85.8416 44.024 85.595 44.2 85.3162 44.3056C85.0169 44.415 84.7001 44.4689 84.3814 44.4645C84.22 44.4659 84.0593 44.4433 83.9045 44.3975C83.7643 44.3561 83.6299 44.297 83.5046 44.2216C83.3949 44.1541 83.2941 44.0732 83.2047 43.9806C83.1301 43.904 83.0668 43.8172 83.0167 43.7227H82.9977V46.3362H82.1109L82.1069 39.1426Z" fill="white"/>
<path d="M91.6951 41.3923H93.4737C93.4377 40.8724 93.3048 40.4685 93.0738 40.1835C92.8429 39.8986 92.5179 39.7546 92.1 39.7546C91.9294 39.7515 91.7598 39.7806 91.6001 39.8406C91.4663 39.8929 91.3435 39.9699 91.2382 40.0676C91.1406 40.16 91.0606 40.2694 91.0022 40.3905C90.9442 40.5087 90.8999 40.6331 90.8703 40.7614H90.0214C90.0654 40.3748 90.2224 40.0097 90.4728 39.7118C90.7232 39.414 91.0558 39.1965 91.4292 39.0868C91.6543 39.0198 91.8881 38.9861 92.123 38.9868C92.4614 38.9801 92.797 39.0484 93.1058 39.1867C93.3861 39.3153 93.6325 39.5073 93.8257 39.7476C94.0282 40.0037 94.1789 40.2968 94.2696 40.6105C94.3737 40.9676 94.4246 41.3382 94.4206 41.7102C94.4249 42.0879 94.374 42.4641 94.2696 42.827C94.1794 43.143 94.0286 43.4384 93.8257 43.6968C93.6328 43.939 93.3864 44.133 93.1058 44.2637C92.7971 44.4026 92.4614 44.4709 92.123 44.4637C91.8656 44.4655 91.6093 44.4281 91.3632 44.3527C91.1332 44.282 90.919 44.1676 90.7323 44.0158C90.5395 43.8554 90.3787 43.66 90.2584 43.4399C90.1161 43.1833 90.0149 42.906 89.9584 42.6181H90.8653C90.8791 42.7693 90.9215 42.9165 90.9902 43.052C91.0553 43.1811 91.1446 43.2965 91.2532 43.3919C91.3632 43.4884 91.4904 43.5633 91.6281 43.6129C91.7756 43.6672 91.9318 43.6943 92.089 43.6928C92.3023 43.6979 92.5132 43.6472 92.7009 43.5459C92.8692 43.452 93.0155 43.3231 93.1298 43.168C93.2422 43.012 93.3277 42.8383 93.3828 42.6541C93.4375 42.4754 93.4675 42.29 93.4717 42.1032H91.6931L91.6951 41.3923Z" fill="white"/>
<path d="M99.4726 42.4861C99.4573 42.6243 99.4322 42.7613 99.3976 42.896C99.359 43.048 99.3051 43.1957 99.2367 43.3369C99.1626 43.4875 99.071 43.6287 98.9637 43.7578C98.8494 43.8973 98.7145 44.0187 98.5638 44.1177C98.39 44.2286 98.2006 44.3128 98.0019 44.3677C97.762 44.4338 97.5139 44.4654 97.2651 44.4617C97.1046 44.4608 96.9446 44.4423 96.7882 44.4067C96.6169 44.368 96.452 44.3054 96.2983 44.2207C96.1332 44.1295 95.9809 44.0169 95.8453 43.8858C95.694 43.7376 95.5675 43.5661 95.4704 43.3779C95.3548 43.1545 95.2682 42.9173 95.2125 42.672C95.1429 42.3694 95.1093 42.0597 95.1125 41.7492C95.1068 41.357 95.1687 40.9667 95.2955 40.5954C95.4041 40.2779 95.5702 39.9831 95.7853 39.7256C95.9812 39.4938 96.2243 39.3063 96.4982 39.1757C96.7653 39.0487 97.0573 38.9831 97.353 38.9837C97.5944 38.9799 97.8353 39.0088 98.0689 39.0697C98.2598 39.1205 98.4423 39.1987 98.6108 39.3017C98.7579 39.3921 98.8898 39.5051 99.0017 39.6366C99.1041 39.7584 99.1905 39.8928 99.2587 40.0365C99.3235 40.1728 99.3738 40.3156 99.4086 40.4625C99.4405 40.599 99.4622 40.7377 99.4736 40.8774H98.6448C98.6192 40.5695 98.491 40.279 98.2808 40.0525C98.0809 39.8526 97.8039 39.7526 97.45 39.7526C97.2347 39.7447 97.021 39.7927 96.8296 39.8918C96.6383 39.991 96.4759 40.138 96.3582 40.3185C96.2302 40.5158 96.1388 40.7346 96.0883 40.9644C96.0269 41.237 95.997 41.5157 95.9993 41.7952C95.9955 42.0915 96.0291 42.3871 96.0993 42.675C96.1514 42.893 96.2447 43.099 96.3742 43.2819C96.4863 43.4352 96.6366 43.5566 96.8101 43.6338C96.9955 43.7116 97.195 43.7501 97.396 43.7468C97.5461 43.748 97.6949 43.7194 97.8339 43.6628C97.9729 43.6062 98.0993 43.5226 98.2059 43.4169C98.3209 43.3004 98.4152 43.1651 98.4848 43.017C98.5657 42.8478 98.6209 42.6675 98.6488 42.482L99.4726 42.4861Z" fill="white"/>
<path d="M101.722 39.9134H99.9442V39.1426H104.387V39.9134H102.609V44.3025H101.722V39.9134Z" fill="white"/>
<path d="M108.844 41.3251C108.842 41.0973 108.803 40.8712 108.731 40.6553C108.67 40.4724 108.571 40.3042 108.442 40.1614C108.318 40.0293 108.165 39.9268 107.996 39.8614C107.811 39.7916 107.615 39.7577 107.418 39.7615C107.225 39.7592 107.035 39.7994 106.859 39.8794C106.689 39.9572 106.537 40.0684 106.411 40.2064C106.279 40.3528 106.174 40.5222 106.102 40.7063C106.023 40.9072 105.976 41.1195 105.962 41.3351L108.844 41.3251ZM109.678 42.6549C109.64 42.8868 109.562 43.1102 109.447 43.3148C109.325 43.5329 109.167 43.7285 108.979 43.8926C108.777 44.0687 108.546 44.2084 108.297 44.3055C108.02 44.4123 107.724 44.4653 107.427 44.4615C107.099 44.4649 106.773 44.4069 106.466 44.2906C106.176 44.1794 105.916 44.0029 105.705 43.7747C105.481 43.5242 105.31 43.2297 105.206 42.9098C105.076 42.5151 105.014 42.1014 105.023 41.6861C105.018 41.398 105.052 41.1105 105.123 40.8312C105.185 40.5916 105.279 40.3613 105.402 40.1464C105.617 39.7763 105.928 39.4718 106.302 39.2656C106.469 39.1728 106.646 39.1013 106.83 39.0526C107 39.008 107.175 38.9848 107.35 38.9836C107.68 38.9796 108.008 39.0334 108.319 39.1426C108.604 39.2436 108.862 39.4092 109.073 39.6265C109.291 39.8589 109.457 40.1354 109.559 40.4373C109.683 40.8077 109.742 41.1966 109.735 41.5871V42.037H105.959C105.96 42.2683 105.996 42.4982 106.065 42.7189C106.126 42.9107 106.225 43.0885 106.355 43.2418C106.48 43.3861 106.635 43.5005 106.81 43.5767C107.001 43.6581 107.207 43.6983 107.415 43.6947C107.612 43.6988 107.809 43.6648 107.993 43.5947C108.14 43.5379 108.276 43.4545 108.393 43.3487C108.496 43.2523 108.583 43.1399 108.651 43.0158C108.714 42.8994 108.77 42.7788 108.817 42.6549H109.678Z" fill="white"/>
<path d="M112.144 39.9134H110.367V39.1426H114.81V39.9134H113.031V44.3025H112.144V39.9134Z" fill="white"/>
<path d="M115.706 39.1426H116.592V43.0978H116.611L119.146 39.1426H120.163V44.3025H119.271V40.3463H119.252L116.722 44.3025H115.706V39.1426Z" fill="white"/>
<path d="M124.571 42.2201C124.362 42.2747 124.151 42.3181 123.938 42.3501C123.725 42.3843 123.51 42.402 123.294 42.403C122.604 42.403 122.092 42.2697 121.757 42.0031C121.423 41.7365 121.256 41.3179 121.257 40.7474V39.1387H122.143V40.5694C122.14 40.7387 122.164 40.9074 122.213 41.0693C122.256 41.2046 122.335 41.3254 122.442 41.4182C122.564 41.5181 122.708 41.5883 122.862 41.6232C123.072 41.6725 123.287 41.6953 123.503 41.6912C123.584 41.6898 123.665 41.6834 123.746 41.6722C123.846 41.6592 123.938 41.6432 124.037 41.6232C124.136 41.6032 124.237 41.5822 124.329 41.5582C124.411 41.538 124.492 41.5133 124.572 41.4842V39.1377H125.464V44.2977H124.572L124.571 42.2201Z" fill="white"/>
<path d="M130.334 41.3251C130.331 41.0973 130.293 40.8712 130.221 40.6553C130.16 40.4724 130.061 40.3042 129.932 40.1614C129.807 40.0293 129.655 39.9268 129.486 39.8614C129.301 39.7916 129.105 39.7577 128.908 39.7615C128.715 39.7592 128.524 39.7994 128.349 39.8794C128.179 39.9575 128.027 40.0686 127.901 40.2064C127.768 40.3528 127.664 40.5222 127.592 40.7063C127.513 40.9072 127.465 41.1195 127.452 41.3351L130.334 41.3251ZM131.167 42.6549C131.13 42.8868 131.052 43.1102 130.936 43.3148C130.815 43.5329 130.657 43.7285 130.468 43.8926C130.267 44.0689 130.036 44.2087 129.787 44.3055C129.509 44.4124 129.214 44.4654 128.917 44.4615C128.589 44.4648 128.263 44.4068 127.956 44.2906C127.666 44.1794 127.406 44.0029 127.195 43.7747C126.97 43.5242 126.8 43.2297 126.695 42.9098C126.566 42.5151 126.504 42.1014 126.512 41.6861C126.508 41.398 126.541 41.1105 126.612 40.8312C126.675 40.5916 126.769 40.3613 126.892 40.1464C127.106 39.7763 127.418 39.4718 127.792 39.2656C127.958 39.1728 128.136 39.1013 128.32 39.0526C128.49 39.008 128.664 38.9848 128.84 38.9836C129.17 38.9796 129.497 39.0334 129.809 39.1426C130.094 39.2436 130.352 39.4092 130.562 39.6265C130.783 39.8583 130.951 40.1349 131.054 40.4373C131.178 40.8077 131.238 41.1966 131.23 41.5871V42.037H127.455C127.456 42.2683 127.492 42.4982 127.561 42.7189C127.622 42.9107 127.721 43.0885 127.851 43.2418C127.976 43.3861 128.131 43.5005 128.306 43.5767C128.497 43.6581 128.703 43.6983 128.911 43.6947C129.108 43.6988 129.304 43.6648 129.489 43.5947C129.636 43.5379 129.772 43.4545 129.889 43.3487C129.992 43.2523 130.079 43.1399 130.147 43.0158C130.21 42.8994 130.265 42.7788 130.313 42.6549H131.167Z" fill="white"/>
<path d="M136.318 42.4861C136.303 42.6243 136.278 42.7613 136.243 42.896C136.205 43.048 136.151 43.1957 136.082 43.3369C136.008 43.4875 135.917 43.6287 135.809 43.7578C135.695 43.8973 135.56 44.0187 135.41 44.1177C135.236 44.2286 135.046 44.3128 134.848 44.3677C134.608 44.4338 134.36 44.4654 134.111 44.4617C133.95 44.4608 133.79 44.4423 133.634 44.4067C133.463 44.368 133.298 44.3054 133.144 44.2207C132.979 44.1295 132.827 44.0169 132.691 43.8858C132.54 43.7376 132.413 43.5661 132.316 43.3779C132.201 43.1545 132.114 42.9173 132.058 42.672C131.989 42.3694 131.955 42.0597 131.958 41.7492C131.953 41.357 132.015 40.9668 132.141 40.5954C132.25 40.2779 132.416 39.9831 132.631 39.7256C132.827 39.494 133.07 39.3066 133.344 39.1757C133.611 39.0487 133.903 38.9831 134.199 38.9837C134.44 38.9799 134.681 39.0088 134.915 39.0697C135.106 39.1205 135.288 39.1987 135.457 39.3017C135.604 39.3921 135.736 39.5051 135.847 39.6366C135.95 39.7584 136.036 39.8928 136.104 40.0365C136.169 40.1728 136.22 40.3156 136.254 40.4625C136.286 40.599 136.308 40.7377 136.319 40.8774H135.491C135.465 40.5695 135.337 40.279 135.127 40.0525C134.927 39.8526 134.652 39.7526 134.296 39.7526C134.08 39.7447 133.867 39.7927 133.675 39.8918C133.484 39.991 133.322 40.138 133.204 40.3185C133.076 40.5158 132.985 40.7346 132.934 40.9644C132.873 41.237 132.843 41.5157 132.845 41.7952C132.841 42.0915 132.875 42.3871 132.945 42.675C132.997 42.893 133.09 43.099 133.22 43.2819C133.331 43.4361 133.481 43.5585 133.654 43.6368C133.839 43.7146 134.039 43.753 134.24 43.7498C134.39 43.7512 134.539 43.7228 134.678 43.6661C134.817 43.6095 134.943 43.5258 135.05 43.4199C135.165 43.3033 135.259 43.1681 135.329 43.0199C135.409 42.8507 135.465 42.6705 135.493 42.4851L136.318 42.4861Z" fill="white"/>
<path d="M137.195 39.1426H138.082V41.6381L140.689 39.1426H141.849L139.426 41.4211L141.888 44.3025H140.747L138.732 41.961L138.082 42.5049V44.3025H137.195V39.1426Z" fill="white"/>
<path d="M147.092 41.7148C147.097 42.1026 147.042 42.4888 146.928 42.8596C146.831 43.1767 146.67 43.4709 146.456 43.7244C146.25 43.9625 145.992 44.1497 145.701 44.2713C145.053 44.5245 144.333 44.5245 143.685 44.2713C143.396 44.1491 143.139 43.962 142.934 43.7244C142.72 43.4709 142.559 43.1768 142.461 42.8596C142.348 42.4888 142.293 42.1026 142.298 41.7148C142.293 41.3314 142.348 40.9495 142.461 40.583C142.559 40.2666 142.72 39.9731 142.934 39.7202C143.139 39.4827 143.396 39.2955 143.685 39.1733C144.333 38.9201 145.053 38.9201 145.701 39.1733C145.992 39.2949 146.25 39.4821 146.456 39.7202C146.67 39.9732 146.83 40.2666 146.928 40.583C147.042 40.9494 147.097 41.3313 147.092 41.7148ZM146.205 41.7148C146.206 41.449 146.173 41.1841 146.105 40.927C146.048 40.7045 145.95 40.4946 145.816 40.3081C145.691 40.1378 145.529 39.9985 145.341 39.9012C145.139 39.7999 144.915 39.7495 144.689 39.7542C144.47 39.7474 144.254 39.7944 144.058 39.891C143.862 39.9876 143.693 40.1308 143.566 40.3081C143.431 40.4941 143.333 40.7042 143.277 40.927C143.209 41.1841 143.176 41.449 143.177 41.7148C143.176 41.9846 143.209 42.2535 143.277 42.5147C143.333 42.7391 143.431 42.9509 143.566 43.1385C143.696 43.3145 143.866 43.4575 144.061 43.556C144.256 43.6545 144.472 43.7058 144.691 43.7058C144.91 43.7058 145.126 43.6545 145.321 43.556C145.517 43.4575 145.686 43.3145 145.816 43.1385C145.951 42.9504 146.049 42.7388 146.105 42.5147C146.173 42.2535 146.207 41.9846 146.205 41.7148Z" fill="white"/>
<path d="M148.089 39.1422H148.976V43.0974H148.995L151.529 39.1422H152.55V44.3022H151.659V40.3459H151.639L149.11 44.3022H148.093L148.089 39.1422ZM149.482 37.1426C149.513 37.3292 149.605 37.5006 149.741 37.6315C149.907 37.7628 150.115 37.8274 150.325 37.8124C150.585 37.8124 150.781 37.7538 150.912 37.6365C151.051 37.5058 151.142 37.3316 151.168 37.1426H151.992C151.992 37.3242 151.949 37.5033 151.867 37.6655C151.786 37.8231 151.67 37.96 151.527 38.0654C151.369 38.1811 151.191 38.2669 151.002 38.3183C150.782 38.3801 150.554 38.4101 150.325 38.4073C150.098 38.4098 149.87 38.3808 149.65 38.3213C149.463 38.2705 149.286 38.1854 149.13 38.0704C148.988 37.9638 148.873 37.8272 148.791 37.6705C148.707 37.5072 148.663 37.3262 148.663 37.1426H149.482Z" fill="white"/>
<path d="M156.589 39.1426H157.475V43.0978H157.495L160.029 39.1426H161.045V44.3025H160.154V40.3463H160.135L157.606 44.3025H156.589V39.1426Z" fill="white"/>
<path d="M170.105 43.7485C170.265 43.7514 170.424 43.7211 170.572 43.6595C170.703 43.6021 170.822 43.5192 170.921 43.4155C171.021 43.3108 171.103 43.1906 171.164 43.0596C171.23 42.922 171.281 42.7784 171.318 42.6307C171.357 42.4787 171.385 42.3239 171.4 42.1678C171.416 42.0173 171.424 41.8662 171.424 41.7149C171.426 41.4593 171.401 41.2044 171.349 40.954C171.307 40.7345 171.228 40.5236 171.116 40.3302C171.017 40.158 170.876 40.013 170.707 39.9082C170.525 39.8018 170.317 39.7484 170.107 39.7543C169.959 39.7535 169.814 39.7878 169.683 39.8542C169.544 39.9247 169.422 40.0251 169.326 40.1482C169.216 40.29 169.133 40.4505 169.08 40.6221C169.016 40.8323 168.985 41.0512 168.989 41.271V42.2368C168.989 42.7187 169.085 43.0906 169.278 43.3526C169.372 43.4818 169.497 43.5856 169.641 43.6547C169.786 43.7238 169.945 43.756 170.105 43.7485ZM168.105 43.6805H168.086C168.007 43.826 167.909 43.9605 167.794 44.0804C167.615 44.2653 167.383 44.3886 167.129 44.4323C167.007 44.4533 166.884 44.4637 166.76 44.4633C166.506 44.4624 166.255 44.4014 166.028 44.2854C165.781 44.1583 165.564 43.978 165.395 43.7575C165.195 43.4964 165.044 43.2018 164.949 42.8876C164.831 42.4989 164.774 42.0941 164.781 41.6879C164.781 41.4661 164.797 41.2445 164.829 41.025C164.859 40.8117 164.909 40.6015 164.978 40.3971C165.043 40.2022 165.13 40.0148 165.236 39.8382C165.336 39.6694 165.463 39.5178 165.612 39.3893C165.76 39.2613 165.929 39.1598 166.111 39.0894C166.315 39.015 166.531 38.9784 166.748 38.9814C166.91 38.9789 167.072 39.0039 167.225 39.0554C167.358 39.1007 167.484 39.165 167.598 39.2464C167.701 39.3186 167.795 39.4024 167.878 39.4963C167.956 39.5863 168.025 39.6713 168.083 39.7523H168.102V37.2178H168.989V39.7523H169.008C169.066 39.6713 169.134 39.5863 169.208 39.4963C169.291 39.4025 169.384 39.3186 169.487 39.2464C169.601 39.1656 169.726 39.1014 169.858 39.0554C170.012 39.0034 170.175 38.9784 170.338 38.9814C170.554 38.9784 170.77 39.015 170.973 39.0894C171.156 39.1598 171.325 39.2613 171.473 39.3893C171.622 39.5178 171.748 39.6694 171.848 39.8382C171.955 40.0144 172.041 40.2018 172.106 40.3971C172.175 40.6014 172.226 40.8116 172.256 41.025C172.288 41.2445 172.304 41.4661 172.304 41.6879C172.311 42.0942 172.254 42.4991 172.135 42.8876C172.04 43.202 171.889 43.4966 171.689 43.7575C171.52 43.978 171.304 44.1582 171.056 44.2854C170.83 44.4015 170.578 44.4625 170.324 44.4633C170.2 44.4636 170.077 44.4533 169.956 44.4323C169.835 44.4113 169.718 44.3722 169.609 44.3164C169.49 44.2547 169.382 44.1751 169.288 44.0804C169.173 43.9619 169.075 43.8271 168.999 43.6805H168.98V46.336H168.093L168.105 43.6805ZM168.105 41.272C168.108 41.0522 168.077 40.8332 168.013 40.6231C167.96 40.4518 167.877 40.2912 167.768 40.1492C167.672 40.0261 167.55 39.9257 167.411 39.8552C167.28 39.7888 167.134 39.7545 166.987 39.7553C166.775 39.7486 166.564 39.802 166.38 39.9092C166.211 40.0137 166.07 40.1587 165.97 40.3311C165.859 40.5245 165.781 40.7355 165.74 40.955C165.689 41.2055 165.665 41.4604 165.667 41.7159C165.667 41.8672 165.676 42.0184 165.694 42.1688C165.711 42.3248 165.739 42.4795 165.778 42.6317C165.815 42.7792 165.867 42.9228 165.931 43.0606C165.993 43.1909 166.074 43.311 166.172 43.4165C166.274 43.5265 166.398 43.6132 166.536 43.6706C166.674 43.7281 166.823 43.755 166.972 43.7495C167.135 43.7586 167.297 43.7275 167.444 43.659C167.591 43.5904 167.72 43.4865 167.817 43.3565C168.012 43.0946 168.109 42.7227 168.109 42.2408L168.105 41.272Z" fill="white"/>
<path d="M172.759 39.1426H173.733L175.106 43.3417H175.125L176.498 39.1426H177.471L175.501 44.5095C175.401 44.7794 175.31 45.0094 175.227 45.2094C175.155 45.3835 175.073 45.5531 174.981 45.7173C174.913 45.8395 174.831 45.9536 174.737 46.0572C174.659 46.1388 174.568 46.2064 174.468 46.2572C174.365 46.308 174.254 46.3417 174.14 46.3571C174.002 46.3763 173.862 46.3853 173.723 46.3841C173.623 46.3856 173.522 46.38 173.423 46.3671C173.359 46.3577 173.295 46.344 173.232 46.3261V45.5263C173.29 45.5453 173.366 45.5643 173.459 45.5843C173.556 45.6035 173.654 45.6129 173.753 45.6123C173.896 45.6197 174.037 45.5785 174.153 45.4953C174.261 45.4076 174.342 45.2912 174.387 45.1594L174.676 44.4325L172.759 39.1426Z" fill="white"/>
<path d="M178.233 39.1426H179.12V41.2242H181.528V39.1426H182.42V44.3025H181.528V41.995H179.12V44.3025H178.233V39.1426Z" fill="white"/>
<path d="M183.72 39.1426H184.607V41.6381L187.214 39.1426H188.375L185.951 41.4211L188.414 44.3025H187.272L185.257 41.961L184.607 42.5049V44.3025H183.72V39.1426Z" fill="white"/>
<path d="M189.127 39.1426H190.014V43.5317H192.423V39.1426H193.314V43.5317H193.95V45.5653H193.121V44.3025H189.127V39.1426Z" fill="white"/>
<path d="M194.76 39.1426H195.646V43.0978H195.665L198.2 39.1426H199.217V44.3025H198.325V40.3463H198.306L195.776 44.3025H194.76V39.1426Z" fill="white"/>
<path d="M205.009 41.7148C205.014 42.1026 204.958 42.4888 204.845 42.8596C204.747 43.177 204.586 43.4712 204.372 43.7244C204.166 43.9625 203.908 44.1497 203.618 44.2713C202.969 44.5245 202.25 44.5245 201.601 44.2713C201.312 44.1489 201.055 43.9618 200.849 43.7244C200.636 43.4706 200.475 43.1766 200.377 42.8596C200.264 42.4888 200.208 42.1026 200.213 41.7148C200.209 41.3313 200.264 40.9494 200.377 40.583C200.476 40.2668 200.636 39.9734 200.849 39.7202C201.055 39.4829 201.312 39.2958 201.601 39.1733C202.25 38.9201 202.969 38.9201 203.618 39.1733C203.908 39.2949 204.166 39.4821 204.372 39.7202C204.586 39.9728 204.747 40.2664 204.845 40.583C204.958 40.9494 205.013 41.3313 205.009 41.7148ZM204.122 41.7148C204.123 41.4489 204.09 41.184 204.022 40.927C203.966 40.7042 203.868 40.4941 203.733 40.3081C203.608 40.1378 203.446 39.9986 203.259 39.9012C203.056 39.7999 202.832 39.7495 202.606 39.7542C202.388 39.7474 202.171 39.7944 201.975 39.891C201.78 39.9876 201.611 40.1308 201.483 40.3081C201.348 40.4943 201.25 40.7043 201.193 40.927C201.126 41.1841 201.092 41.449 201.093 41.7148C201.092 41.9846 201.126 42.2535 201.193 42.5147C201.25 42.7391 201.348 42.9507 201.483 43.1385C201.613 43.3143 201.783 43.4571 201.978 43.5555C202.174 43.6539 202.389 43.7051 202.608 43.7051C202.827 43.7051 203.042 43.6539 203.238 43.5555C203.433 43.4571 203.603 43.3143 203.733 43.1385C203.868 42.9509 203.966 42.7391 204.022 42.5147C204.09 42.2536 204.124 41.9847 204.122 41.7148Z" fill="white"/>
<path d="M206.005 39.1426H206.892V41.2242H209.302V39.1426H210.192V44.3025H209.302V41.995H206.892V44.3025H206.005V39.1426Z" fill="white"/>
<path d="M214.684 41.6771C214.603 41.7325 214.514 41.7754 214.421 41.8041C214.308 41.84 214.193 41.8684 214.077 41.889C213.951 41.911 213.818 41.931 213.677 41.949L213.252 42.004C213.102 42.0256 212.954 42.059 212.809 42.104C212.684 42.1405 212.565 42.1958 212.457 42.268C212.362 42.3302 212.283 42.4133 212.226 42.5109C212.169 42.6132 212.141 42.7289 212.144 42.8458C212.141 42.9792 212.165 43.1118 212.214 43.2358C212.257 43.3435 212.323 43.4407 212.407 43.5207C212.493 43.6003 212.595 43.6594 212.707 43.6937C212.83 43.7337 212.959 43.7532 213.088 43.7517C213.189 43.75 213.289 43.7396 213.388 43.7207C213.506 43.6963 213.622 43.6629 213.735 43.6207C213.856 43.5782 213.973 43.5243 214.084 43.4597C214.196 43.395 214.299 43.3145 214.39 43.2208C214.479 43.128 214.552 43.0209 214.607 42.9038C214.662 42.7779 214.69 42.6416 214.689 42.5039L214.684 41.6771ZM211.484 40.6893C211.484 40.4128 211.545 40.1398 211.662 39.8894C211.765 39.6802 211.917 39.499 212.105 39.3615C212.304 39.2211 212.53 39.1222 212.768 39.0706C213.042 39.0088 213.323 38.979 213.604 38.9816C213.849 38.9807 214.094 39.0065 214.334 39.0586C214.556 39.1043 214.769 39.1882 214.962 39.3065C215.142 39.4174 215.293 39.5692 215.403 39.7495C215.519 39.9507 215.577 40.1802 215.569 40.4123V43.4117C215.567 43.489 215.591 43.5646 215.637 43.6267C215.664 43.6578 215.697 43.6821 215.735 43.6976C215.773 43.7131 215.814 43.7193 215.854 43.7157C215.901 43.7155 215.947 43.7115 215.993 43.7037L216.143 43.6767V44.2886C216.069 44.3086 215.996 44.3256 215.924 44.3415C215.839 44.3592 215.753 44.3672 215.666 44.3655C215.532 44.3681 215.398 44.3553 215.266 44.3275C215.165 44.3063 215.07 44.2626 214.987 44.1996C214.91 44.1386 214.85 44.0592 214.811 43.9686C214.766 43.8571 214.738 43.739 214.729 43.6187C214.622 43.7368 214.506 43.8474 214.383 43.9496C214.256 44.0531 214.119 44.142 213.973 44.2146C213.812 44.2936 213.642 44.3533 213.467 44.3925C213.26 44.4379 213.048 44.4597 212.836 44.4575C212.638 44.4565 212.442 44.4227 212.255 44.3575C212.07 44.2946 211.899 44.198 211.749 44.0726C211.598 43.9448 211.476 43.7863 211.39 43.6077C211.297 43.4066 211.25 43.1866 211.255 42.9648C211.249 42.7271 211.295 42.491 211.39 42.273C211.473 42.0886 211.593 41.9232 211.742 41.7871C211.889 41.6567 212.058 41.555 212.242 41.4871C212.425 41.4176 212.616 41.371 212.811 41.3481L214.262 41.1692C214.387 41.1599 214.503 41.1021 214.587 41.0082C214.676 40.8796 214.718 40.7235 214.704 40.5673C214.704 40.2554 214.603 40.0314 214.399 39.8954C214.195 39.7594 213.901 39.6911 213.519 39.6905C213.127 39.6905 212.835 39.7731 212.642 39.9384C212.449 40.1034 212.342 40.3523 212.315 40.6833L211.484 40.6893Z" fill="white"/>
<path d="M220.455 39.9134H218.48L218.442 41.1511C218.432 41.6768 218.383 42.2011 218.297 42.7198C218.242 43.07 218.136 43.4102 217.982 43.7296C217.876 43.9525 217.707 44.1397 217.497 44.2685C217.298 44.377 217.074 44.4318 216.847 44.4275C216.708 44.43 216.572 44.386 216.461 44.3025V43.5216C216.566 43.5658 216.679 43.5905 216.793 43.5946C216.861 43.5949 216.929 43.5834 216.993 43.5606C217.062 43.5328 217.123 43.4882 217.171 43.4307C217.238 43.3488 217.291 43.2566 217.328 43.1577C217.385 43.0088 217.427 42.8548 217.455 42.6978C217.497 42.4699 217.528 42.24 217.547 42.0089C217.571 41.7423 217.588 41.4211 217.597 41.0451L217.641 39.1455H221.346V44.3055H220.459L220.455 39.9134Z" fill="white"/>
<path d="M223.536 43.5947H224.794C224.939 43.5958 225.084 43.5793 225.225 43.5457C225.349 43.5178 225.466 43.4647 225.569 43.3897C225.666 43.3164 225.744 43.2203 225.796 43.1098C225.854 42.9787 225.882 42.8362 225.878 42.6929C225.882 42.5519 225.853 42.4119 225.794 42.2839C225.739 42.1733 225.657 42.0781 225.557 42.007C225.447 41.93 225.322 41.8759 225.191 41.848C225.034 41.8125 224.873 41.7954 224.712 41.797H223.536V43.5947ZM222.649 39.1426H223.536V41.0842H224.967C225.224 41.0799 225.479 41.118 225.724 41.1972C225.932 41.2647 226.123 41.3747 226.286 41.5201C226.441 41.6599 226.563 41.8328 226.641 42.026C226.726 42.238 226.768 42.4646 226.764 42.6929C226.768 42.9231 226.726 43.1518 226.641 43.3657C226.562 43.5588 226.441 43.7317 226.286 43.8716C226.123 44.0161 225.931 44.1251 225.724 44.1916C225.479 44.269 225.223 44.3065 224.967 44.3025H222.649V39.1426Z" fill="white"/>
<path d="M227.577 39.1426H228.464V41.2242H230.873V39.1426H231.764V44.3025H230.873V41.995H228.464V44.3025H227.577V39.1426Z" fill="white"/>
<path d="M237.556 41.7148C237.561 42.1026 237.506 42.4889 237.392 42.8596C237.295 43.1767 237.134 43.4709 236.92 43.7244C236.714 43.9625 236.456 44.1497 236.165 44.2713C235.517 44.5246 234.798 44.5246 234.15 44.2713C233.86 44.1494 233.603 43.9622 233.398 43.7244C233.184 43.4712 233.023 43.1769 232.926 42.8596C232.812 42.489 232.756 42.1027 232.762 41.7148C232.757 41.3313 232.812 40.9493 232.926 40.5831C233.023 40.2665 233.184 39.9729 233.398 39.7202C233.603 39.4824 233.86 39.2953 234.15 39.1733C234.798 38.9201 235.517 38.9201 236.165 39.1733C236.456 39.295 236.714 39.4821 236.92 39.7202C237.134 39.9732 237.294 40.2666 237.392 40.5831C237.506 40.9494 237.561 41.3313 237.556 41.7148ZM236.669 41.7148C236.67 41.449 236.637 41.1841 236.569 40.927C236.512 40.7043 236.414 40.4943 236.279 40.3081C236.155 40.1376 235.993 39.9983 235.805 39.9012C235.603 39.7999 235.379 39.7495 235.153 39.7542C234.934 39.7475 234.718 39.7944 234.522 39.891C234.326 39.9876 234.157 40.1308 234.03 40.3081C233.895 40.4942 233.797 40.7042 233.741 40.927C233.673 41.1841 233.64 41.449 233.641 41.7148C233.64 41.9847 233.673 42.2535 233.741 42.5147C233.798 42.7388 233.897 42.9498 234.034 43.1366C234.164 43.3123 234.334 43.4551 234.529 43.5535C234.724 43.6519 234.94 43.7032 235.159 43.7032C235.377 43.7032 235.593 43.6519 235.788 43.5535C235.984 43.4551 236.153 43.3123 236.283 43.1366C236.418 42.9488 236.517 42.7371 236.573 42.5127C236.639 42.252 236.672 41.9838 236.669 41.7148Z" fill="white"/>
<path d="M238.553 39.1423H239.44V43.0975H239.459L241.993 39.1423H243.01V44.3023H242.119V40.3461H242.099L239.57 44.3023H238.553V39.1423ZM239.946 37.1427C239.978 37.3293 240.069 37.5007 240.206 37.6316C240.371 37.7629 240.579 37.8275 240.79 37.8126C241.05 37.8126 241.246 37.7539 241.378 37.6366C241.517 37.5042 241.607 37.3282 241.632 37.1377H242.456C242.456 37.3193 242.413 37.4984 242.331 37.6606C242.25 37.8182 242.134 37.9551 241.991 38.0605C241.833 38.1762 241.655 38.262 241.467 38.3135C241.246 38.3752 241.018 38.4052 240.79 38.4024C240.562 38.4049 240.335 38.376 240.115 38.3165C239.927 38.2656 239.751 38.1805 239.594 38.0655C239.453 37.959 239.337 37.8224 239.255 37.6656C239.171 37.5023 239.127 37.3213 239.127 37.1377L239.946 37.1427Z" fill="white"/>
<path d="M64.6674 53.8345C64.652 53.9724 64.6269 54.1091 64.5924 54.2435C64.5546 54.3957 64.5007 54.5436 64.4314 54.6844C64.3577 54.8352 64.2664 54.9769 64.1595 55.1063C64.0451 55.2454 63.9102 55.3665 63.7596 55.4652C63.5859 55.5762 63.3964 55.6605 63.1977 55.7152C62.958 55.7833 62.7099 55.817 62.4608 55.8151C62.3003 55.8139 62.1404 55.7951 61.9839 55.7592C61.813 55.7207 61.6483 55.658 61.495 55.5732C61.3299 55.4824 61.1776 55.3701 61.0421 55.2393C60.8905 55.0908 60.7635 54.9189 60.6662 54.7304C60.5504 54.507 60.4637 54.2698 60.4082 54.0245C60.3392 53.7218 60.3056 53.4121 60.3082 53.1017C60.3026 52.7094 60.3645 52.3192 60.4912 51.9479C60.5994 51.6304 60.7651 51.3355 60.9801 51.0781C61.176 50.8465 61.419 50.6593 61.693 50.5292C61.9601 50.4014 62.2527 50.3355 62.5488 50.3362C62.7899 50.3326 63.0304 50.3619 63.2637 50.4232C63.4546 50.4741 63.6374 50.5519 63.8065 50.6542C63.9536 50.7443 64.0852 50.8574 64.1965 50.9891C64.2992 51.1108 64.3859 51.2452 64.4544 51.389C64.519 51.5257 64.5689 51.6688 64.6034 51.8159C64.6363 51.9519 64.658 52.0903 64.6684 52.2299H63.8395C63.8139 51.9222 63.6858 51.6321 63.4756 51.406C63.2756 51.2061 62.9987 51.1061 62.6448 51.1061C62.4295 51.0985 62.2159 51.1466 62.0246 51.2457C61.8333 51.3448 61.6709 51.4917 61.553 51.672C61.4251 51.8692 61.3339 52.0881 61.2841 52.3178C61.2218 52.5903 61.1916 52.8692 61.1941 53.1487C61.1898 53.445 61.2234 53.7407 61.294 54.0285C61.3457 54.2461 61.4387 54.4518 61.568 54.6344C61.6804 54.7878 61.8311 54.9091 62.0049 54.9863C62.1899 55.0641 62.3891 55.1026 62.5898 55.0993C62.7402 55.1 62.8892 55.0715 63.0287 55.0153C63.1675 54.9589 63.2936 54.8752 63.3996 54.7693C63.5146 54.6528 63.609 54.5176 63.6786 54.3694C63.7594 54.2006 63.8147 54.0207 63.8425 53.8355L64.6674 53.8345Z" fill="white"/>
<path d="M66.92 51.2611H65.1414V50.4902H69.5845V51.2611H67.8058V55.6502H66.92V51.2611Z" fill="white"/>
<path d="M74.9717 53.0635C74.9768 53.4509 74.9215 53.8368 74.8077 54.2072C74.7103 54.5244 74.5497 54.8185 74.3358 55.0721C74.1297 55.3102 73.8714 55.4973 73.5809 55.619C72.9328 55.8736 72.2124 55.8736 71.5643 55.619C71.2754 55.4968 71.0184 55.3096 70.8135 55.0721C70.5992 54.8186 70.4383 54.5244 70.3406 54.2072C70.2268 53.8368 70.1715 53.4509 70.1766 53.0635C70.1717 52.6796 70.227 52.2974 70.3406 51.9307C70.4388 51.6143 70.5996 51.3209 70.8135 51.0679C71.0184 50.8303 71.2754 50.6432 71.5643 50.521C72.2127 50.2677 72.9326 50.2677 73.5809 50.521C73.8714 50.6426 74.1297 50.8298 74.3358 51.0679C74.5493 51.3209 74.7098 51.6144 74.8077 51.9307C74.9212 52.2974 74.9766 52.6796 74.9717 53.0635ZM74.0848 53.0635C74.086 52.7976 74.0524 52.5328 73.9848 52.2756C73.928 52.0526 73.8297 51.8423 73.6949 51.6558C73.5703 51.4855 73.4081 51.3463 73.221 51.2488C73.0185 51.1476 72.7945 51.0971 72.5681 51.1019C72.3499 51.0951 72.1334 51.1421 71.9376 51.2386C71.7418 51.3352 71.5728 51.4785 71.4454 51.6558C71.3105 51.8421 71.2125 52.0525 71.1564 52.2756C71.0883 52.5327 71.0547 52.7976 71.0564 53.0635C71.0545 53.3333 71.0881 53.6023 71.1564 53.8633C71.2117 54.0879 71.3098 54.2997 71.4454 54.4872C71.5728 54.6645 71.7418 54.8077 71.9376 54.9043C72.1334 55.0009 72.3499 55.0479 72.5681 55.0411C72.7945 55.0458 73.0185 54.9954 73.221 54.8941C73.4083 54.797 73.5706 54.6577 73.6949 54.4872C73.8304 54.2996 73.9288 54.0878 73.9848 53.8633C74.0526 53.6022 74.0862 53.3333 74.0848 53.0635Z" fill="white"/>
<path d="M75.968 50.4902H77.2598L78.6235 54.7204H78.6425L80.0252 50.4902H81.24V55.6502H80.4111V51.497H80.3911L79.0284 55.6502H78.1796L76.8168 51.497H76.7968V55.6502H75.968V50.4902Z" fill="white"/>
<path d="M85.7306 53.0247C85.6503 53.0805 85.562 53.1237 85.4686 53.1527C85.3556 53.1881 85.2404 53.2162 85.1237 53.2366C84.9987 53.2586 84.8647 53.2786 84.7238 53.2966C84.5828 53.3146 84.4408 53.3326 84.2998 53.3526C84.1497 53.3735 84.0015 53.4069 83.8569 53.4526C83.7321 53.4893 83.6134 53.5446 83.505 53.6166C83.4102 53.6788 83.3308 53.7619 83.273 53.8595C83.2169 53.9621 83.1886 54.0775 83.1911 54.1944C83.1888 54.3281 83.2126 54.4608 83.2611 54.5854C83.3045 54.6926 83.3703 54.7894 83.454 54.8693C83.5399 54.9485 83.6424 55.0076 83.754 55.0423C83.8769 55.0822 84.0056 55.1018 84.1349 55.1003C84.2356 55.0992 84.336 55.0888 84.4348 55.0693C84.5527 55.0469 84.6687 55.0155 84.7818 54.9753C84.9026 54.9322 85.0194 54.8783 85.1307 54.8143C85.2433 54.7493 85.3462 54.6688 85.4366 54.5754C85.5267 54.4827 85.6001 54.3751 85.6536 54.2574C85.7099 54.1317 85.7378 53.9952 85.7356 53.8575L85.7306 53.0247ZM82.5312 52.0369C82.5316 51.7605 82.5924 51.4875 82.7092 51.237C82.8128 51.0284 82.9651 50.8477 83.1531 50.7101C83.352 50.569 83.5775 50.4697 83.8159 50.4182C84.0903 50.3569 84.3707 50.3271 84.6518 50.3292C84.8971 50.3288 85.1418 50.3547 85.3816 50.4062C85.604 50.4519 85.8168 50.5358 86.0105 50.6541C86.1905 50.7651 86.3416 50.9173 86.4514 51.0981C86.5669 51.2991 86.6244 51.5282 86.6174 51.7599V54.7593C86.6152 54.8361 86.6388 54.9115 86.6844 54.9733C86.7107 55.0045 86.7442 55.0288 86.782 55.0443C86.8197 55.0598 86.8607 55.066 86.9013 55.0623C86.9482 55.0621 86.9951 55.0581 87.0413 55.0503L87.1903 55.0243V55.6362C87.1173 55.6552 87.0443 55.6732 86.9713 55.6892C86.8864 55.7064 86.8 55.7145 86.7134 55.7131C86.579 55.7155 86.4448 55.7024 86.3134 55.6742C86.2119 55.6531 86.1163 55.6097 86.0335 55.5472C85.9567 55.4855 85.8963 55.4058 85.8575 55.3152C85.8121 55.2039 85.7844 55.0862 85.7756 54.9663C85.6679 55.0843 85.5519 55.1946 85.4286 55.2962C85.303 55.4 85.1658 55.4889 85.0197 55.5612C84.8588 55.6405 84.6889 55.7002 84.5138 55.7391C84.3064 55.7854 84.0944 55.8075 83.8819 55.8051C83.6844 55.8041 83.4885 55.7703 83.302 55.7051C83.1172 55.6428 82.9456 55.5465 82.7961 55.4212C82.645 55.2934 82.5226 55.1349 82.4372 54.9563C82.3436 54.7548 82.2974 54.5345 82.3022 54.3124C82.2964 54.0751 82.3425 53.8393 82.4372 53.6216C82.5198 53.437 82.6392 53.2713 82.7881 53.1347C82.9348 53.0046 83.1043 52.9029 83.288 52.8347C83.4712 52.7648 83.6623 52.7178 83.8569 52.6947L85.3067 52.5168C85.432 52.5073 85.5486 52.4492 85.6316 52.3548C85.7216 52.2263 85.7633 52.0702 85.7496 51.9139C85.7496 51.6033 85.6496 51.3793 85.4496 51.242C85.2497 51.1061 84.9497 51.0371 84.5698 51.0371C84.1899 51.0371 83.8859 51.1201 83.693 51.285C83.5 51.45 83.393 51.6989 83.365 52.0299L82.5312 52.0369Z" fill="white"/>
<path d="M89.4015 51.2611H87.6238V50.4902H92.067V51.2611H90.2883V55.6502H89.4015V51.2611Z" fill="white"/>
<path d="M97.4541 53.0635C97.4592 53.4509 97.4039 53.8368 97.2901 54.2072C97.1924 54.5244 97.0315 54.8186 96.8172 55.0721C96.6116 55.3102 96.3535 55.4973 96.0634 55.619C95.4153 55.8736 94.6949 55.8736 94.0468 55.619C93.7577 55.4965 93.5005 55.3094 93.2949 55.0721C93.0809 54.8185 92.9204 54.5244 92.823 54.2072C92.7092 53.8368 92.6539 53.4509 92.6591 53.0635C92.6541 52.6796 92.7095 52.2974 92.823 51.9307C92.9209 51.6144 93.0814 51.3209 93.2949 51.0679C93.5005 50.8305 93.7577 50.6434 94.0468 50.521C94.6951 50.2677 95.415 50.2677 96.0634 50.521C96.3535 50.6426 96.6116 50.8298 96.8172 51.0679C97.0311 51.3209 97.1919 51.6143 97.2901 51.9307C97.4037 52.2974 97.459 52.6796 97.4541 53.0635ZM96.5673 53.0635C96.569 52.7976 96.5354 52.5327 96.4673 52.2756C96.4112 52.0525 96.3132 51.8421 96.1783 51.6558C96.0482 51.48 95.8786 51.3372 95.6833 51.2388C95.4879 51.1404 95.2723 51.0892 95.0536 51.0892C94.8349 51.0892 94.6192 51.1404 94.4239 51.2388C94.2285 51.3372 94.059 51.48 93.9288 51.6558C93.794 51.8421 93.6959 52.0525 93.6399 52.2756C93.5718 52.5327 93.5381 52.7976 93.5399 53.0635C93.538 53.3333 93.5716 53.6023 93.6399 53.8633C93.6952 54.0879 93.7933 54.2997 93.9288 54.4872C94.0562 54.6645 94.2253 54.8077 94.4211 54.9043C94.6168 55.0009 94.8334 55.0479 95.0516 55.0411C95.2779 55.0458 95.502 54.9954 95.7044 54.8941C95.8916 54.7967 96.0538 54.6575 96.1783 54.4872C96.3139 54.2997 96.412 54.0879 96.4673 53.8633C96.5356 53.6023 96.5692 53.3333 96.5673 53.0635Z" fill="white"/>
<path d="M101.925 51.261H99.9495L99.9105 52.4997C99.9011 53.0251 99.853 53.5491 99.7665 54.0674C99.7114 54.4177 99.605 54.758 99.4506 55.0772C99.3453 55.3005 99.1771 55.4881 98.9667 55.6171C98.7671 55.7255 98.5429 55.7803 98.3158 55.7761C98.2359 55.7777 98.1564 55.7638 98.0818 55.7351C98.0279 55.7138 97.9771 55.6852 97.9309 55.6501V54.8703C98.0363 54.9141 98.1487 54.9385 98.2628 54.9423C98.3293 54.9427 98.3953 54.9312 98.4578 54.9083C98.5275 54.8809 98.5891 54.8361 98.6367 54.7783C98.703 54.6966 98.7557 54.6048 98.7927 54.5063C98.8498 54.3574 98.8927 54.2034 98.9207 54.0464C98.9577 53.8565 98.9877 53.6265 99.0127 53.3566C99.0377 53.0866 99.0537 52.7657 99.0627 52.3938L99.1066 50.4941H102.812V55.6541H101.925V51.261Z" fill="white"/>
<path d="M108.608 53.0635C108.613 53.451 108.558 53.8369 108.444 54.2072C108.347 54.5245 108.186 54.8188 107.972 55.0721C107.766 55.3099 107.508 55.4971 107.218 55.619C106.57 55.8736 105.849 55.8736 105.201 55.619C104.912 55.4968 104.655 55.3097 104.449 55.0721C104.235 54.8188 104.075 54.5245 103.977 54.2072C103.864 53.8368 103.808 53.4509 103.814 53.0635C103.809 52.6796 103.864 52.2974 103.977 51.9307C104.075 51.6142 104.235 51.3207 104.449 51.0679C104.655 50.8303 104.912 50.6432 105.201 50.521C105.85 50.2677 106.57 50.2677 107.218 50.521C107.508 50.6429 107.766 50.83 107.972 51.0679C108.186 51.3207 108.346 51.6142 108.444 51.9307C108.558 52.2973 108.613 52.6796 108.608 53.0635ZM107.721 53.0635C107.722 52.7976 107.688 52.5328 107.621 52.2756C107.564 52.0527 107.466 51.8424 107.332 51.6558C107.202 51.4798 107.032 51.3368 106.837 51.2383C106.641 51.1398 106.425 51.0885 106.207 51.0885C105.988 51.0885 105.772 51.1398 105.576 51.2383C105.381 51.3368 105.211 51.4798 105.081 51.6558C104.947 51.8424 104.849 52.0527 104.792 52.2756C104.725 52.5328 104.691 52.7976 104.692 53.0635C104.691 53.3333 104.725 53.6022 104.792 53.8633C104.848 54.0878 104.946 54.2995 105.081 54.4872C105.211 54.6631 105.381 54.8061 105.576 54.9046C105.772 55.0031 105.988 55.0545 106.207 55.0545C106.425 55.0545 106.641 55.0031 106.837 54.9046C107.032 54.8061 107.202 54.6631 107.332 54.4872C107.467 54.2995 107.565 54.0878 107.621 53.8633C107.689 53.6022 107.722 53.3333 107.721 53.0635Z" fill="white"/>
<path d="M109.605 50.4902H112.81V51.2611H110.492V55.6502H109.605V50.4902Z" fill="white"/>
<path d="M113.581 50.4902H114.467V54.4464H114.487L117.021 50.4902H118.037V55.6502H117.146V51.695H117.127L114.597 55.6502H113.581V50.4902Z" fill="white"/>
<path d="M119.339 50.4902H120.224V54.4464H120.244L122.779 50.4902H123.795V55.6502H122.904V51.695H122.885L120.355 55.6502H119.339V50.4902Z" fill="white"/>
</g>
<mask id="mask1_83_1476" style="mask-type:luminance" maskUnits="userSpaceOnUse" x="69" y="1" width="119" height="34">
<path d="M187.154 1.03125H69.2149V34.0287H187.154V1.03125Z" fill="white"/>
</mask>
<g mask="url(#mask1_83_1476)">
<path d="M71.4745 6.83203H80.2887C82.6882 6.83203 84.3969 7.54889 85.4147 8.9826C86.0141 9.84187 86.3269 10.8685 86.3085 11.916C86.3085 13.2111 85.9419 14.2729 85.2087 15.1014C84.8268 15.5386 84.2772 15.9385 83.5601 16.3011C84.6118 16.7011 85.3987 17.1526 85.9206 17.6559C86.8424 18.5497 87.3033 19.7828 87.3033 21.3551C87.31 22.6582 86.8716 23.9245 86.0606 24.9444C84.8215 26.5441 82.8519 27.344 80.1517 27.344H71.4775L71.4745 6.83203ZM80.1907 24.9764C81.8944 24.9764 83.1095 24.4829 83.836 23.4957C84.2926 22.8718 84.5209 22.1177 84.5209 21.2332C84.5209 19.7435 83.8543 18.7283 82.5213 18.1878C81.8134 17.8985 80.8776 17.7542 79.7138 17.7549H74.1959V24.9764H80.1907ZM79.2549 15.5063C80.4287 15.5063 81.3412 15.3433 81.9924 15.0174C83.0175 14.5055 83.5297 13.5834 83.5291 12.251C83.5284 10.9186 82.9835 10.0157 81.8944 9.54249C81.2805 9.28188 80.368 9.15157 79.1569 9.15157H74.1979V15.5073L79.2549 15.5063Z" fill="white"/>
<path d="M90.6248 6.83203H93.4042V24.9064H103.797V27.3509H90.6248V6.83203Z" fill="white"/>
<path d="M112.499 6.83203H115.642L123.086 27.3509H120.042L117.957 21.2052H109.842L107.621 27.3509H104.772L112.499 6.83203ZM117.066 18.9406L113.952 9.87443L110.641 18.9406H117.066Z" fill="white"/>
<path d="M125.615 6.83203H128.897L139.262 23.4537V6.83203H141.901V27.3509H138.787L128.269 10.7433V27.3509H125.615V6.83203Z" fill="white"/>
<path d="M154.92 6.27246C157.52 6.27246 159.536 6.957 160.969 8.32606C162.402 9.69512 163.198 11.2501 163.357 12.9911H160.649C160.342 11.6681 159.729 10.6206 158.812 9.84875C157.895 9.0769 156.608 8.69031 154.95 8.68898C152.929 8.68898 151.296 9.39918 150.051 10.8196C148.806 12.2399 148.184 14.4165 148.186 17.3493C148.186 19.7488 148.748 21.6974 149.87 23.1951C150.992 24.6928 152.666 25.44 154.891 25.4366C156.939 25.4366 158.499 24.6498 159.571 23.0761C160.139 22.2476 160.563 21.1582 160.842 19.8078H163.548C163.306 21.968 162.507 23.7793 161.149 25.2417C159.519 27.0013 157.322 27.8812 154.556 27.8812C152.173 27.8812 150.17 27.1596 148.549 25.7166C146.416 23.807 145.35 20.8596 145.35 16.8743C145.35 13.8483 146.15 11.3664 147.749 9.42883C149.484 7.32459 151.874 6.27246 154.92 6.27246Z" fill="white"/>
<path d="M176.068 25.4647C178.518 25.4647 180.289 24.5872 181.383 22.8323C182.477 21.0773 183.024 19.0587 183.025 16.7765C183.025 14.3649 182.393 12.4233 181.131 10.9516C179.869 9.47991 178.144 8.74339 175.956 8.74206C173.834 8.74206 172.101 9.47058 170.757 10.9276C169.413 12.3847 168.743 14.5346 168.747 17.3773C168.747 19.6489 169.323 21.5648 170.473 23.1252C171.624 24.6856 173.489 25.4654 176.068 25.4647ZM175.789 6.26855C179.411 6.26855 182.093 7.43266 183.834 9.76086C185.194 11.5765 185.874 13.8997 185.874 16.7305C185.874 19.7965 185.097 22.3433 183.542 24.3709C181.716 26.7558 179.113 27.9479 175.733 27.9472C172.576 27.9472 170.094 26.9041 168.288 24.8179C166.677 22.8063 165.871 20.2641 165.871 17.1914C165.871 14.4173 166.56 12.0427 167.939 10.0678C169.708 7.5383 172.325 6.27322 175.789 6.27255V6.26855Z" fill="white"/>
</g>
<path d="M12.1569 33.0006L25.7542 46.3739C25.964 46.5763 26.1316 46.8182 26.2473 47.0857C26.363 47.3532 26.4245 47.641 26.4283 47.9325C26.4322 48.2239 26.3782 48.5132 26.2695 48.7837C26.1608 49.0541 25.9996 49.3003 25.7952 49.5081C25.5908 49.7159 25.3473 49.8811 25.0786 49.9942C24.81 50.1072 24.5216 50.1659 24.2302 50.1669C23.9387 50.1678 23.6499 50.111 23.3806 49.9997C23.1112 49.8884 22.8666 49.7248 22.6608 49.5183L9.06352 36.145C8.64655 35.734 8.40993 35.1742 8.40571 34.5887C8.40149 34.0032 8.63002 33.4401 9.04102 33.0231C9.45203 32.6061 10.0118 32.3695 10.5973 32.3653C11.1828 32.3611 11.7459 32.5896 12.1629 33.0006H12.1569Z" fill="white"/>
<path d="M12.1569 33.0006L25.7542 46.3739C25.964 46.5763 26.1316 46.8182 26.2473 47.0857C26.363 47.3532 26.4245 47.641 26.4283 47.9325C26.4322 48.2239 26.3782 48.5132 26.2695 48.7837C26.1608 49.0541 25.9996 49.3003 25.7952 49.5081C25.5908 49.7159 25.3473 49.8811 25.0786 49.9942C24.81 50.1072 24.5216 50.1659 24.2302 50.1669C23.9387 50.1678 23.6499 50.111 23.3806 49.9997C23.1112 49.8884 22.8666 49.7248 22.6608 49.5183L9.06352 36.145C8.64655 35.734 8.40993 35.1742 8.40571 34.5887C8.40149 34.0032 8.63002 33.4401 9.04102 33.0231C9.45203 32.6061 10.0118 32.3695 10.5973 32.3653C11.1828 32.3611 11.7459 32.5896 12.1629 33.0006H12.1569Z" stroke="white" stroke-width="0.390357" stroke-linejoin="round"/>
<path d="M25.7822 23.2101C25.7822 23.2101 31.2031 16.9503 32.3359 11.7953C33.4687 6.64036 30.5903 2.47719 27.4569 1.27243C24.3235 0.0676681 20.4493 3.24804 17.5829 3.26603C14.7164 3.28403 10.8742 0.0666695 6.81099 1.4174C2.74779 2.76813 1.98495 5.53658 1.31208 7.16425C1.1941 7.4522 0.0443351 12.1363 3.06473 16.3434C5.18131 19.2908 6.45106 20.4296 11.3481 25.6076C16.2451 30.7855 22.6538 37.0543 22.6538 37.0543C22.8603 37.2575 23.1047 37.4181 23.3732 37.5268C23.6417 37.6355 23.929 37.6903 24.2187 37.688C24.5084 37.6856 24.7948 37.6263 25.0615 37.5133C25.3282 37.4003 25.5701 37.2358 25.7732 37.0293C26.627 36.1605 26.4301 34.7638 25.7472 33.9099C25.5873 33.71 9.62943 16.4484 8.17872 14.2278C7.7728 13.604 6.49606 11.6284 6.55604 9.84473C6.61903 8.00809 7.92378 6.92331 8.42168 6.64536C10.0763 5.70855 11.993 5.79553 13.4997 6.54538C14.7774 7.18326 15.7462 7.88311 17.1809 8.02309C19.6874 8.26604 21.0512 6.68135 22.8918 6.13746C24.7324 5.59357 27.5409 6.54838 27.6758 8.91191C27.7848 10.8015 26.4611 13.318 25.6672 15.1387C24.3155 18.2381 22.2159 20.6126 22.2159 20.6126C21.8737 21.0871 21.7341 21.6781 21.8276 22.2556C21.9212 22.8331 22.2403 23.3498 22.7148 23.692C23.1893 24.0342 23.7804 24.1738 24.3578 24.0803C24.9353 23.9867 25.452 23.6676 25.7942 23.1931" fill="white"/>
<path d="M25.7822 23.2101C25.7822 23.2101 31.2031 16.9503 32.3359 11.7953C33.4687 6.64036 30.5903 2.47719 27.4569 1.27243C24.3235 0.0676681 20.4493 3.24804 17.5829 3.26603C14.7164 3.28403 10.8742 0.0666695 6.81099 1.4174C2.74779 2.76813 1.98495 5.53658 1.31208 7.16425C1.1941 7.4522 0.0443351 12.1363 3.06473 16.3434C5.18131 19.2908 6.45106 20.4296 11.3481 25.6076C16.2451 30.7855 22.6538 37.0543 22.6538 37.0543C22.8603 37.2575 23.1047 37.4181 23.3732 37.5268C23.6417 37.6355 23.929 37.6903 24.2187 37.6879C24.5084 37.6856 24.7948 37.6263 25.0615 37.5133C25.3282 37.4003 25.5701 37.2358 25.7732 37.0293C26.627 36.1605 26.4301 34.7638 25.7472 33.9099C25.5873 33.71 9.62943 16.4484 8.17872 14.2279C7.7728 13.604 6.49606 11.6284 6.55604 9.84473C6.61903 8.00809 7.92378 6.92331 8.42168 6.64536C10.0763 5.70855 11.993 5.79553 13.4997 6.54538C14.7774 7.18326 15.7462 7.88311 17.1809 8.02309C19.6874 8.26604 21.0512 6.68135 22.8918 6.13746C24.7324 5.59357 27.5409 6.54838 27.6758 8.91191C27.7848 10.8015 26.4611 13.318 25.6672 15.1387C24.3155 18.2381 22.2159 20.6126 22.2159 20.6126C21.8737 21.0871 21.7341 21.6781 21.8276 22.2556C21.9212 22.8331 22.2403 23.3498 22.7148 23.692C23.1893 24.0342 23.7804 24.1738 24.3578 24.0803C24.9353 23.9867 25.452 23.6676 25.7942 23.1931" stroke="white" stroke-width="0.390357" stroke-linejoin="round"/>
<path d="M11.739 45.1191L25.3363 58.4934C25.5461 58.6958 25.7137 58.9377 25.8294 59.2052C25.9451 59.4727 26.0067 59.7605 26.0105 60.0519C26.0143 60.3434 25.9603 60.6327 25.8516 60.9031C25.743 61.1736 25.5818 61.4198 25.3774 61.6276C25.173 61.8354 24.9294 62.0005 24.6608 62.1136C24.3921 62.2267 24.1037 62.2854 23.8123 62.2864C23.5208 62.2873 23.2321 62.2305 22.9627 62.1192C22.6933 62.0078 22.4487 61.8442 22.243 61.6378L8.64566 48.2645C8.24146 47.8514 8.01545 47.2962 8.01622 46.7182C8.017 46.1403 8.2445 45.5857 8.64981 45.1737C9.05513 44.7617 9.60591 44.5252 10.1838 44.515C10.7616 44.5048 11.3204 44.7217 11.74 45.1191H11.739Z" fill="white"/>
<path d="M11.739 45.1191L25.3363 58.4934C25.5461 58.6958 25.7137 58.9377 25.8294 59.2052C25.9451 59.4727 26.0067 59.7605 26.0105 60.0519C26.0143 60.3434 25.9603 60.6327 25.8516 60.9031C25.743 61.1736 25.5818 61.4198 25.3774 61.6276C25.173 61.8354 24.9294 62.0005 24.6608 62.1136C24.3921 62.2267 24.1037 62.2854 23.8123 62.2864C23.5208 62.2873 23.2321 62.2305 22.9627 62.1192C22.6933 62.0078 22.4487 61.8442 22.243 61.6378L8.64566 48.2645C8.24146 47.8514 8.01545 47.2962 8.01622 46.7182C8.017 46.1403 8.2445 45.5857 8.64981 45.1737C9.05513 44.7617 9.60591 44.5252 10.1838 44.515C10.7616 44.5048 11.3204 44.7217 11.74 45.1191H11.739Z" stroke="white" stroke-width="0.390357" stroke-linejoin="round"/>
</svg>
